PathFileType	4	(X/Y/Z)	./resultDataOpenSim/trcMotMarkerGrf/sub10/qtm-14-08.trc
DataRate	CameraRate	NumFrames	NumMarkers	Units	OrigDataRate	OrigDataStartFrame	OrigNumFrames
250.000000	250.000000	12	24	m	250.000000	381	507
Frame#	Time	L.Toe.Tip			R.Toe.Tip			L.Ankle.Lat			R.Ankle.Lat			L.Ankle.Med			R.Ankle.Med			L.Heel			R.Heel			L.Knee.Lat			R.Knee.Lat			L.Knee.Med			R.Knee.Med			L.Thigh.Upper			R.Thigh.Upper			L.ASIS			R.ASIS			V.Sacral			L.Acromium			R.Acromium			C7			L.Elbow			R.Elbow			L.Wrist.Lat			R.Wrist.Lat
		X1	Y1	Z1	X2	Y2	Z2	X3	Y3	Z3	X4	Y4	Z4	X5	Y5	Z5	X6	Y6	Z6	X7	Y7	Z7	X8	Y8	Z8	X9	Y9	Z9	X10	Y10	Z10	X11	Y11	Z11	X12	Y12	Z12	X13	Y13	Z13	X14	Y14	Z14	X15	Y15	Z15	X16	Y16	Z16	X17	Y17	Z17	X18	Y18	Z18	X19	Y19	Z19	X20	Y20	Z20	X21	Y21	Z21	X22	Y22	Z22	X23	Y23	Z23	X24	Y24	Z24

381	1.52	0.9339204	0.067625675	-0.1608244	0.91825701	0.038550381	-0.01070946	0.83039224	0.15606014	-0.16716935	0.77771759	0.053885846	0.038535909	0.86241961	0.16505725	-0.088347066	0.79316517	0.084751074	-0.04457764	0.76647216	0.15471105	-0.11309066	0.72490281	0.032392368	-0.0038424133	1.0265333	0.48563225	-0.19627143	0.85806971	0.44767675	0.092928741	1.0592366	0.45691472	-0.079839275	0.85494704	0.45666676	-0.036536082	0.89881706	0.84324914	-0.22222267	0.88495066	0.86388661	0.16042601	0.94891782	0.95476959	-0.15171032	0.95796561	0.95505746	0.089571302	0.7536623	0.97028653	-0.028600584	0.860767	1.4373083	-0.17208593	0.84061092	1.4205688	0.15046008	0.77248737	1.4500301	-0.018438116	0.76425181	1.112925	-0.27243628	0.7841419	1.0731452	0.19281387	0.92213293	0.9307463	-0.32504379	0.90373043	0.9073485	0.32672204
382	1.524	0.95164383	0.06664504	-0.16177302	0.91831555	0.038576689	-0.010694259	0.84566109	0.15186413	-0.16725378	0.77777748	0.053989681	0.038454078	0.87773404	0.16152098	-0.088495967	0.79281809	0.084836637	-0.044773839	0.78203002	0.14856355	-0.11260593	0.72481632	0.032527886	-0.0040299075	1.0344999	0.48634258	-0.19582492	0.85978409	0.44748166	0.092864935	1.0674325	0.45799147	-0.079217544	0.85691028	0.45649726	-0.036823525	0.90513382	0.84320868	-0.22246514	0.88802601	0.8634611	0.16029111	0.95453044	0.954655	-0.15136825	0.96176179	0.95485895	0.090307186	0.7583692	0.96968449	-0.030057276	0.86610752	1.4367363	-0.17221724	0.8458022	1.4201884	0.15051471	0.77752699	1.4497613	-0.018601859	0.76798788	1.112908	-0.27224201	0.7912875	1.0723142	0.19367936	0.92338428	0.92861198	-0.32419275	0.91497502	0.90742105	0.32479175
383	1.528	0.96932462	0.065724876	-0.16273661	0.91844411	0.038609759	-0.010687319	0.86103277	0.14772395	-0.16729746	0.77782876	0.054094529	0.038370888	0.89354739	0.15799003	-0.088790419	0.79265124	0.084911375	-0.044943215	0.79768584	0.14247287	-0.11216413	0.72480309	0.032698392	-0.0041309106	1.0423491	0.48696707	-0.19532358	0.86152082	0.44727578	0.092763657	1.0752752	0.45884046	-0.078787151	0.85899503	0.45628096	-0.03697693	0.91159726	0.84316487	-0.22267158	0.89111116	0.86301047	0.160124	0.96010344	0.9545251	-0.15107671	0.96554509	0.95462983	0.091041503	0.76307494	0.96906133	-0.031382913	0.87143609	1.4361387	-0.1723594	0.85100099	1.4197833	0.15055967	0.78257769	1.4494732	-0.018761032	0.77172684	1.1128613	-0.27204441	0.79821696	1.0714128	0.19434475	0.92455222	0.92647602	-0.32332816	0.92618637	0.90753343	0.32280494
384	1.532	0.98698722	0.064872243	-0.16371641	0.91863968	0.038640949	-0.01068528	0.87648622	0.14364924	-0.16729207	0.77786394	0.054200988	0.038291392	0.9098257	0.1545112	-0.089229256	0.79269343	0.084973232	-0.045072401	0.81353125	0.13641824	-0.11176738	0.72481739	0.032873884	-0.0042141049	1.0500858	0.48751992	-0.19476468	0.86328308	0.44704498	0.092628207	1.0828447	0.45953712	-0.078403554	0.86118494	0.45604096	-0.037036006	0.91819165	0.84311338	-0.22285598	0.89421158	0.86253008	0.15992065	0.96563711	0.9543911	-0.15083266	0.9693206	0.9543616	0.091751129	0.76780611	0.96838819	-0.032629411	0.87676136	1.4355115	-0.17250169	0.85620806	1.4193669	0.15059287	0.78764297	1.4491431	-0.018917919	0.77547435	1.1127917	-0.27185188	0.80496117	1.0704605	0.19496733	0.92560532	0.92434019	-0.32243342	0.93736293	0.90768771	0.32076285
385	1.536	1.0046374	0.06409722	-0.16471469	0.91882839	0.038660037	-0.010686908	0.89201578	0.13963094	-0.16723739	0.77788969	0.054307146	0.038216259	0.92637993	0.15113623	-0.089784439	0.79283529	0.085022256	-0.04518272	0.82963922	0.13039231	-0.11135093	0.72479286	0.033056751	-0.0043725278	1.0577182	0.48800328	-0.19415544	0.86507854	0.44678843	0.09247865	1.0902647	0.46015081	-0.077929734	0.86346798	0.45580147	-0.037052129	0.9248413	0.84304595	-0.22303705	0.89733479	0.86201682	0.15967367	0.9711377	0.95424719	-0.15060706	0.97309792	0.95405219	0.092416816	0.77261904	0.96763626	-0.03389725	0.88209445	1.4348496	-0.17263777	0.86142746	1.4189382	0.15061864	0.79271613	1.4487558	-0.01907762	0.77923515	1.1127022	-0.27167084	0.81153411	1.0694128	0.1956775	0.92652152	0.92221962	-0.32150004	0.94849359	0.90788865	0.31867105
386	1.54	1.0222644	0.063399269	-0.16574021	0.91891292	0.038659564	-0.010678305	0.90762652	0.13565609	-0.16714884	0.77792213	0.054407725	0.038141241	0.94306937	0.14790016	-0.090381116	0.79299883	0.085058731	-0.045289198	0.84595855	0.12443805	-0.11088994	0.72468685	0.033271634	-0.0046663451	1.0652542	0.48839765	-0.19350982	0.86691008	0.44652064	0.09233605	1.0975978	0.46069059	-0.077348522	0.86583309	0.45555864	-0.037055686	0.93146095	0.84295709	-0.223213	0.90051131	0.86148652	0.15938174	0.97660298	0.95407082	-0.1503703	0.97688605	0.95370463	0.093033908	0.77757065	0.96678704	-0.035265485	0.8874378	1.4341493	-0.17276993	0.8666662	1.4184847	0.15064356	0.79778597	1.4483201	-0.019245777	0.78300607	1.1125932	-0.27149764	0.81801626	1.0682101	0.19652717	0.92736544	0.92013574	-0.32055251	0.95956021	0.90813859	0.31653127
387	1.544	1.0398546	0.062774003	-0.16679645	0.91889546	0.038665019	-0.010635288	0.92332692	0.13172503	-0.16704276	0.77796945	0.054502705	0.038063024	0.95966661	0.14475884	-0.090722355	0.79317786	0.085088563	-0.045382421	0.8624029	0.11860759	-0.11040407	0.72451745	0.033521888	-0.0050665344	1.0726946	0.48867376	-0.19284431	0.86877368	0.4462579	0.092206203	1.1048458	0.46113415	-0.076707313	0.86824168	0.45529633	-0.037082305	0.93798593	0.84284686	-0.22336975	0.90379877	0.86097114	0.15906081	0.98204074	0.95384637	-0.15012239	0.98069075	0.9533196	0.093606571	0.78265255	0.96585926	-0.03670031	0.89278288	1.4334111	-0.17290409	0.87192497	1.4179959	0.15066791	0.80284518	1.4478547	-0.019421951	0.78678099	1.1124651	-0.2713244	0.82469817	1.0669137	0.19744391	0.92827298	0.91810487	-0.31963733	0.97056017	0.90843414	0.31434194
388	1.548	1.0574019	0.062226236	-0.16786823	0.91886709	0.038710674	-0.010569733	0.93912909	0.12785544	-0.16691555	0.77802598	0.054599821	0.037983227	0.97551102	0.14153895	-0.090158636	0.79340363	0.085126643	-0.045433996	0.87894603	0.112919	-0.10992789	0.72435937	0.033776332	-0.0054541205	1.0800283	0.48881722	-0.19217143	0.87066237	0.44600519	0.092078745	1.1119894	0.46146023	-0.076044894	0.87064814	0.45500867	-0.037164963	0.94439851	0.84272019	-0.2234995	0.90721991	0.8604841	0.15873575	0.98748062	0.95357974	-0.14988532	0.98451563	0.95289411	0.094139707	0.78777225	0.96491076	-0.038059721	0.89811552	1.4326413	-0.1730426	0.87719486	1.417471	0.15068229	0.80789581	1.4473623	-0.019599306	0.79055847	1.1123199	-0.27114777	0.83194301	1.0657118	0.19828537	0.92932784	0.91612962	-0.31878252	0.9815146	0.90876852	0.312102
389	1.552	1.0749054	0.06177022	-0.16892895	0.91887616	0.038782084	-0.010532467	0.95504433	0.12406944	-0.1667517	0.77808404	0.054705919	0.037906518	0.98984284	0.13804858	-0.088066269	0.79368092	0.085190198	-0.045427226	0.89561548	0.10735733	-0.10946565	0.72427359	0.03400425	-0.005727522	1.0872421	0.48883046	-0.19149927	0.87257039	0.44575553	0.091938231	1.1190206	0.46166088	-0.075373643	0.87304202	0.45470097	-0.037308338	0.95071301	0.84257848	-0.22360045	0.91068943	0.85999613	0.1584229	0.99294429	0.95328403	-0.1496752	0.98836637	0.95242687	0.09463535	0.79283646	0.96399102	-0.039234462	0.90342785	1.4318447	-0.17318382	0.88246859	1.4169136	0.15067817	0.81294779	1.4468323	-0.019769426	0.79434038	1.1121605	-0.27097077	0.83966045	1.0646954	0.19902508	0.93050849	0.91420249	-0.31798028	0.99244183	0.90913656	0.30980961
390	1.556	1.0923663	0.061422149	-0.16995432	0.91890406	0.038834054	-0.010544702	0.97106481	0.12038495	-0.16654762	0.77814531	0.054821238	0.037836944	1.0029459	0.13434716	-0.084807112	0.79395888	0.085294111	-0.045384298	0.91245424	0.10190594	-0.10894146	0.72425737	0.034204678	-0.0058837915	1.09433	0.4887105	-0.19083534	0.87449556	0.44549894	0.091776431	1.1259521	0.46174028	-0.074695725	0.87544819	0.45437784	-0.037486752	0.95695403	0.84241633	-0.22367549	0.91408699	0.85946586	0.15812471	0.99842767	0.9529639	-0.14949218	0.9922487	0.95192124	0.09509044	0.79780631	0.96310041	-0.04028302	0.9087251	1.431021	-0.17332565	0.88775078	1.4163233	0.15065941	0.8180107	1.4462617	-0.019925844	0.79812751	1.1119883	-0.27080131	0.84712661	1.0637576	0.19977874	0.93175707	0.91231609	-0.31720619	1.0033406	0.90953721	0.30746158
391	1.56	1.1097884	0.061193204	-0.17092302	0.91893355	0.038849106	-0.010576111	0.98715001	0.11682009	-0.16631477	0.77821782	0.054943263	0.037776383	1.0166028	0.13084723	-0.082117165	0.79417648	0.085457302	-0.045350407	0.92946975	0.096586855	-0.10826016	0.7242714	0.034394353	-0.005977569	1.1012919	0.48844197	-0.190186	0.8764399	0.44523232	0.091601314	1.1328031	0.46170578	-0.074013265	0.87789534	0.45403684	-0.037658542	0.96316586	0.84223104	-0.22374122	0.91741989	0.8588911	0.15783383	1.0039168	0.95262032	-0.14932939	0.99616372	0.95138323	0.095497288	0.80263886	0.96220242	-0.041461212	0.91401724	1.4301715	-0.17346884	0.89305564	1.4156961	0.15063709	0.823087	1.4456581	-0.020067182	0.80192049	1.1118003	-0.27064579	0.85373481	1.062782	0.20055474	0.93304001	0.91046698	-0.31644221	1.0142072	0.90997184	0.30505826
392	1.564	1.1271736	0.06108399	-0.17181322	0.91896296	0.038839786	-0.01059636	1.003249	0.11339428	-0.16606378	0.77830546	0.055071022	0.037724636	1.0326426	0.12798552	-0.08176922	0.79432049	0.085691795	-0.04535666	0.94658795	0.091482292	-0.10748584	0.72428389	0.034587662	-0.0060527324	1.1081268	0.4880179	-0.18955316	0.87841048	0.44496152	0.091435585	1.1395771	0.46155847	-0.07332903	0.88039572	0.45367461	-0.037789009	0.96941746	0.84202875	-0.22383142	0.92080546	0.85830562	0.1575409	1.0094034	0.95225839	-0.1491809	1.0001103	0.95081787	0.095846095	0.80725446	0.96126422	-0.043117536	0.91930535	1.4293017	-0.17361518	0.89839431	1.4150288	0.15061553	0.82817312	1.4450255	-0.020197984	0.80572022	1.1115902	-0.27050152	0.85973686	1.0617546	0.20116427	0.93434318	0.90865417	-0.31568323	1.0250415	0.91044172	0.30260436
